<svg width="2344" height="1317" viewBox="0 0 2344 1317" fill="none" xmlns="http://www.w3.org/2000/svg">
<rect width="2344" height="1317" transform="matrix(-1 0 0 1 2344 0)" fill="white"/>
<mask id="mask0_0_1" style="mask-type:alpha" maskUnits="userSpaceOnUse" x="0" y="0" width="2344" height="1317">
<rect width="2344" height="1317" transform="matrix(-1 0 0 1 2344 0)" fill="white"/>
</mask>
<g mask="url(#mask0_0_1)">
<path d="M1642.51 1055.34C1561.38 1055.34 1483.52 1081.22 1425.79 1127.39C1368.05 1173.56 1335.09 1236.29 1334.05 1302C1333.01 1367.71 1363.96 1431.1 1420.21 1478.46C1476.46 1525.81 1553.48 1553.31 1634.58 1555L1637.42 1465.69C1585.31 1464.6 1535.84 1446.93 1499.7 1416.51C1463.56 1386.09 1443.67 1345.36 1444.34 1303.15C1445.01 1260.93 1466.19 1220.63 1503.28 1190.97C1540.37 1161.31 1590.39 1144.68 1642.51 1144.68V1055.34Z" fill="#8B95EA"/>
<path d="M1629.51 645.225C1710.64 645.225 1788.51 671.112 1846.24 717.279C1903.97 763.446 1936.93 826.177 1937.97 891.885C1939.02 957.594 1908.06 1020.99 1851.81 1068.34C1795.56 1115.7 1718.55 1143.2 1637.44 1144.89L1634.61 1055.57C1686.71 1054.49 1736.19 1036.82 1772.33 1006.4C1808.46 975.976 1828.35 935.248 1827.68 893.034C1827.01 850.82 1805.84 810.519 1768.75 780.859C1731.66 751.199 1681.63 734.569 1629.51 734.569V645.225Z" fill="#8B95EA"/>
<path d="M1637.49 235.03C1556.36 235.03 1478.49 260.917 1420.76 307.084C1363.03 353.251 1330.07 415.982 1329.03 481.69C1327.98 547.398 1358.94 610.795 1415.19 658.149C1471.44 705.503 1548.45 733.003 1629.56 734.693L1632.39 645.378C1580.29 644.293 1530.81 626.626 1494.67 596.204C1458.54 565.781 1438.65 525.053 1439.32 482.839C1439.99 440.625 1461.16 400.324 1498.25 370.664C1535.34 341.004 1585.37 324.374 1637.49 324.374V235.03Z" fill="#8B95EA"/>
<path d="M1624.51 -175C1705.64 -175 1783.51 -149.113 1841.24 -102.946C1898.97 -56.7791 1931.93 5.95164 1932.97 71.6601C1934.02 137.369 1903.06 200.765 1846.81 248.119C1790.56 295.473 1713.55 322.973 1632.44 324.663L1629.61 235.348C1681.71 234.263 1731.19 216.596 1767.33 186.174C1803.47 155.751 1823.35 115.023 1822.68 72.8088C1822.01 30.5948 1800.84 -9.70619 1763.75 -39.3659C1726.66 -69.0257 1676.63 -85.6564 1624.51 -85.6564V-175Z" fill="#8B95EA"/>
<path d="M1429.51 956.853C1348.38 956.853 1270.52 978.88 1212.79 1018.16C1155.05 1057.44 1122.09 1110.82 1121.05 1166.73C1120.01 1222.64 1150.96 1276.58 1207.21 1316.87C1263.46 1357.16 1340.48 1380.56 1421.58 1382L1424.42 1306.01C1372.31 1305.08 1322.84 1290.05 1286.7 1264.16C1250.56 1238.28 1230.67 1203.62 1231.34 1167.71C1232.01 1131.79 1253.19 1097.5 1290.28 1072.26C1327.37 1047.02 1377.39 1032.87 1429.51 1032.87V956.853Z" fill="#A5AEFF"/>
<path d="M1416.51 607.902C1497.64 607.902 1575.51 629.929 1633.24 669.211C1690.97 708.493 1723.93 761.868 1724.97 817.777C1726.02 873.687 1695.06 927.628 1638.81 967.921C1582.56 1008.21 1505.55 1031.61 1424.44 1033.05L1421.61 957.054C1473.71 956.131 1523.19 941.099 1559.33 915.213C1595.46 889.328 1615.35 854.673 1614.68 818.755C1614.01 782.836 1592.84 748.545 1555.75 723.309C1518.66 698.072 1468.63 683.922 1416.51 683.922V607.902Z" fill="#A5AEFF"/>
<path d="M1424.49 258.881C1343.36 258.881 1265.49 280.907 1207.76 320.189C1150.03 359.471 1117.07 412.847 1116.03 468.756C1114.98 524.665 1145.94 578.607 1202.19 618.899C1258.44 659.191 1335.45 682.59 1416.56 684.027L1419.39 608.033C1367.29 607.109 1317.81 592.077 1281.67 566.192C1245.54 540.306 1225.65 505.652 1226.32 469.733C1226.99 433.815 1248.16 399.524 1285.25 374.288C1322.34 349.051 1372.37 334.9 1424.49 334.9V258.881Z" fill="#A5AEFF"/>
<path d="M1411.51 -90C1492.64 -90 1570.51 -67.9739 1628.24 -28.6918C1685.97 10.5903 1718.93 63.9658 1719.97 119.875C1721.02 175.784 1690.06 229.726 1633.81 270.018C1577.56 310.31 1500.55 333.709 1419.44 335.146L1416.61 259.152C1468.71 258.228 1518.19 243.196 1554.33 217.311C1590.47 191.425 1610.35 156.771 1609.68 120.852C1609.01 84.9338 1587.84 50.6431 1550.75 25.4066C1513.66 0.170071 1463.63 -13.9805 1411.51 -13.9805L1411.51 -90Z" fill="#A5AEFF"/>
<path d="M1982.51 1055.31C1901.38 1055.31 1823.52 1086.12 1765.79 1141.07C1708.05 1196.02 1675.09 1270.68 1674.05 1348.88C1673.01 1427.09 1703.96 1502.54 1760.21 1558.9C1816.46 1615.26 1893.48 1647.99 1974.58 1650L1977.42 1543.7C1925.31 1542.41 1875.84 1521.38 1839.7 1485.17C1803.56 1448.97 1783.67 1400.49 1784.34 1350.25C1785.01 1300.01 1806.19 1252.04 1843.28 1216.74C1880.37 1181.44 1930.39 1161.65 1982.51 1161.65V1055.31Z" fill="#5C7FC5"/>
<path d="M1969.51 567.21C2050.64 567.21 2128.51 598.019 2186.24 652.966C2243.97 707.913 2276.93 782.574 2277.97 860.778C2279.02 938.983 2248.06 1014.44 2191.81 1070.79C2135.56 1127.15 2058.55 1159.88 1977.44 1161.89L1974.61 1055.6C2026.71 1054.3 2076.19 1033.28 2112.33 997.069C2148.46 960.861 2168.35 912.387 2167.68 862.145C2167.01 811.903 2145.84 763.938 2108.75 728.638C2071.66 693.338 2021.63 673.544 1969.51 673.544V567.21Z" fill="#5C7FC5"/>
<path d="M1977.49 79.0064C1896.36 79.0064 1818.49 109.816 1760.76 164.763C1703.03 219.71 1670.07 294.37 1669.03 372.575C1667.98 450.779 1698.94 526.232 1755.19 582.592C1811.44 638.951 1888.45 671.681 1969.56 673.692L1972.39 567.392C1920.29 566.101 1870.81 545.074 1834.67 508.866C1798.54 472.658 1778.65 424.184 1779.32 373.942C1779.99 323.7 1801.16 275.735 1838.25 240.435C1875.34 205.134 1925.37 185.341 1977.49 185.341L1977.49 79.0064Z" fill="#5C7FC5"/>
<path d="M1964.51 -409C2045.64 -409 2123.51 -378.191 2181.24 -323.244C2238.97 -268.297 2271.93 -193.636 2272.97 -115.432C2274.02 -37.2274 2243.06 38.2253 2186.81 94.585C2130.56 150.945 2053.55 183.674 1972.44 185.685L1969.61 79.3856C2021.71 78.0938 2071.19 57.0671 2107.33 20.8592C2143.47 -15.3487 2163.35 -63.8228 2162.68 -114.065C2162.01 -164.307 2140.84 -212.272 2103.75 -247.572C2066.66 -282.872 2016.63 -302.666 1964.51 -302.666V-409Z" fill="#5C7FC5"/>
<path d="M2126.51 1414.4C2045.38 1414.4 1967.52 1455.1 1909.79 1527.69C1852.05 1600.28 1819.09 1698.91 1818.05 1802.22C1817.01 1905.53 1847.96 2005.2 1904.21 2079.65C1960.46 2154.11 2037.48 2197.34 2118.58 2200L2121.42 2059.58C2069.31 2057.87 2019.84 2030.09 1983.7 1982.26C1947.56 1934.43 1927.67 1870.39 1928.34 1804.02C1929.01 1737.65 1950.19 1674.29 1987.28 1627.65C2024.37 1581.02 2074.39 1554.87 2126.51 1554.87V1414.4Z" fill="#4C459F"/>
<path d="M2113.51 769.602C2194.64 769.602 2272.51 810.303 2330.24 882.889C2387.97 955.476 2420.93 1054.1 2421.97 1157.41C2423.02 1260.73 2392.06 1360.4 2335.81 1434.85C2279.56 1509.31 2202.55 1552.54 2121.44 1555.2L2118.61 1414.77C2170.71 1413.07 2220.19 1385.29 2256.33 1337.46C2292.46 1289.63 2312.35 1225.59 2311.68 1159.22C2311.01 1092.85 2289.84 1029.49 2252.75 982.854C2215.66 936.221 2165.63 910.073 2113.51 910.073V769.602Z" fill="#4C459F"/>
<path d="M2121.49 124.671C2040.36 124.671 1962.49 165.372 1904.76 237.958C1847.03 310.545 1814.07 409.173 1813.03 512.484C1811.98 615.794 1842.94 715.469 1899.19 789.922C1955.44 864.375 2032.45 907.612 2113.56 910.268L2116.39 769.844C2064.29 768.137 2014.81 740.36 1978.67 692.528C1942.54 644.697 1922.65 580.661 1923.32 514.29C1923.99 447.919 1945.16 384.555 1982.25 337.923C2019.34 291.29 2069.37 265.142 2121.49 265.142V124.671Z" fill="#4C459F"/>
<path d="M2108.51 -520C2189.64 -520 2267.51 -479.299 2325.24 -406.713C2382.97 -334.127 2415.93 -235.498 2416.97 -132.188C2418.02 -28.8771 2387.06 70.7982 2330.81 145.251C2274.56 219.704 2197.55 262.94 2116.44 265.597L2113.61 125.172C2165.71 123.466 2215.19 95.6887 2251.33 47.857C2287.47 0.0253102 2307.35 -64.0104 2306.68 -130.382C2306.01 -196.753 2284.84 -260.116 2247.75 -306.749C2210.66 -353.381 2160.63 -379.529 2108.51 -379.529V-520Z" fill="#4C459F"/>
</g>
</svg>
